<svg width="164" height="79" viewBox="0 0 164 79" fill="none" xmlns="http://www.w3.org/2000/svg">
<path d="M69.8267 45.8852V47.1353H66.9448V45.8852H69.8267ZM67.4919 43.209V49.9503H65.8213V43.209H67.4919ZM70.9551 43.209V49.9503H69.2845V43.209H70.9551Z" fill="#6048A6"/>
<path d="M75.2768 48.691V46.4871C75.2768 46.3451 75.2654 46.237 75.2426 46.163C75.2198 46.0858 75.1824 46.0318 75.1303 46.0009C75.0814 45.967 75.0081 45.95 74.9105 45.95C74.8323 45.95 74.7688 45.9685 74.72 46.0055C74.6711 46.0426 74.6369 46.0997 74.6174 46.1769C74.5978 46.254 74.5881 46.3559 74.5881 46.4824H72.981C72.981 46.2509 73.0282 46.0364 73.1227 45.8389C73.2171 45.6382 73.3523 45.4638 73.5281 45.3157C73.7039 45.1675 73.914 45.0533 74.1582 44.973C74.4057 44.8897 74.6825 44.848 74.9886 44.848C75.3501 44.848 75.6741 44.9036 75.9607 45.0147C76.2472 45.1227 76.4735 45.2971 76.6396 45.5379C76.8089 45.7787 76.8936 46.0981 76.8936 46.4963V48.6863C76.8936 49.0135 76.9115 49.262 76.9473 49.4318C76.9832 49.5985 77.032 49.7451 77.0939 49.8716V49.9503H75.4917C75.4168 49.796 75.3615 49.6077 75.3256 49.3855C75.2931 49.1602 75.2768 48.9286 75.2768 48.691ZM75.4575 46.8899L75.4673 47.7233H75.0521C74.9512 47.7233 74.8649 47.7464 74.7932 47.7927C74.7216 47.836 74.6613 47.8946 74.6125 47.9687C74.5669 48.0428 74.5343 48.1261 74.5148 48.2187C74.4953 48.3082 74.4855 48.4008 74.4855 48.4965C74.4855 48.6323 74.5001 48.7311 74.5295 48.7928C74.562 48.8546 74.6011 48.8947 74.6467 48.9132C74.6955 48.9286 74.7493 48.9364 74.8079 48.9364C74.9316 48.9364 75.0342 48.9117 75.1156 48.8623C75.2003 48.8098 75.2605 48.7481 75.2963 48.6771C75.3322 48.6061 75.3419 48.5459 75.3256 48.4965L75.4917 49.1077C75.4364 49.2219 75.3826 49.3346 75.3305 49.4457C75.2784 49.5537 75.2133 49.654 75.1351 49.7466C75.057 49.8361 74.9609 49.9071 74.847 49.9596C74.733 50.0152 74.5897 50.0429 74.4171 50.0429C74.1436 50.0429 73.8896 49.9905 73.6551 49.8855C73.4239 49.7806 73.2367 49.6185 73.0934 49.3994C72.9533 49.1802 72.8833 48.9024 72.8833 48.566C72.8833 48.3345 72.9208 48.1184 72.9957 47.9178C73.0738 47.714 73.1959 47.535 73.362 47.3807C73.5281 47.2263 73.7512 47.1059 74.0312 47.0195C74.3145 46.9331 74.6597 46.8899 75.0668 46.8899H75.4575Z" fill="#6048A6"/>
<path d="M80.214 49.3623L81.2886 44.9406H83.008L81.2593 50.6958C81.2202 50.8223 81.1681 50.9582 81.103 51.1032C81.0379 51.2514 80.9483 51.3918 80.8343 51.5246C80.7204 51.6573 80.5738 51.7653 80.3947 51.8487C80.2156 51.932 79.9958 51.9737 79.7353 51.9737C79.5855 51.9737 79.4813 51.966 79.4227 51.9505C79.3641 51.9382 79.2615 51.915 79.115 51.8811L79.1198 50.7652C79.1557 50.7652 79.1817 50.7652 79.198 50.7652C79.2143 50.7652 79.2403 50.7652 79.2761 50.7652C79.4162 50.7652 79.5269 50.7483 79.6083 50.7143C79.6897 50.6804 79.7516 50.631 79.7939 50.5661C79.8363 50.5013 79.8672 50.4226 79.8867 50.33L80.214 49.3623ZM80.1847 44.9406L80.9027 48.4456L81.0737 50.0985H80.004L78.4653 44.9406H80.1847Z" fill="#6048A6"/>
<path d="M88.8049 44.9406V49.9503H87.193V44.9406H88.8049ZM87.9843 47.0103V48.2141C87.9322 48.2604 87.841 48.3051 87.7107 48.3483C87.5805 48.3916 87.4437 48.4271 87.3004 48.4548C87.1571 48.4795 87.0399 48.4919 86.9487 48.4919C86.4733 48.4919 86.063 48.4255 85.7178 48.2928C85.3759 48.1601 85.1121 47.9517 84.9265 47.6677C84.7409 47.3807 84.6481 47.0103 84.6481 46.5565V44.9406H86.2551V46.5565C86.2551 46.7572 86.2747 46.9115 86.3137 47.0195C86.3561 47.1245 86.4277 47.1955 86.5287 47.2325C86.6329 47.2695 86.7729 47.2881 86.9487 47.2881C87.0562 47.2881 87.1588 47.2773 87.2565 47.2557C87.3542 47.234 87.4616 47.2032 87.5789 47.1631C87.6961 47.1198 87.8312 47.0689 87.9843 47.0103Z" fill="#6048A6"/>
<path d="M93.8935 46.8945V48.0937H91.8078V46.8945H93.8935ZM92.3939 44.9406V49.9503H90.7869V44.9406H92.3939ZM94.9193 44.9406V49.9503H93.3122V44.9406H94.9193Z" fill="#6048A6"/>
<path d="M96.8036 47.6816V47.214C96.8036 46.8189 96.8557 46.4747 96.9599 46.1815C97.0641 45.8852 97.2123 45.6398 97.4044 45.4453C97.5965 45.2478 97.8261 45.0996 98.0931 45.0008C98.3602 44.899 98.6581 44.848 98.987 44.848C99.3224 44.848 99.6236 44.899 99.8907 45.0008C100.158 45.0996 100.387 45.2478 100.579 45.4453C100.772 45.6398 100.92 45.8852 101.024 46.1815C101.128 46.4747 101.18 46.8189 101.18 47.214V47.6816C101.18 48.0736 101.128 48.4178 101.024 48.7141C100.92 49.0104 100.772 49.2574 100.579 49.4549C100.391 49.6525 100.161 49.8006 99.8907 49.8994C99.6236 49.9951 99.3257 50.0429 98.9968 50.0429C98.6679 50.0429 98.3683 49.9951 98.098 49.8994C97.8277 49.8006 97.5965 49.6525 97.4044 49.4549C97.2123 49.2574 97.0641 49.0104 96.9599 48.7141C96.8557 48.4178 96.8036 48.0736 96.8036 47.6816ZM98.4106 47.214V47.6816C98.4106 47.8946 98.4237 48.0767 98.4497 48.228C98.4758 48.3761 98.5132 48.4965 98.562 48.5891C98.6142 48.6786 98.676 48.7434 98.7477 48.7836C98.8193 48.8237 98.9023 48.8438 98.9968 48.8438C99.1173 48.8438 99.215 48.8237 99.2899 48.7836C99.368 48.7434 99.4283 48.6786 99.4706 48.5891C99.5129 48.4965 99.5406 48.3761 99.5536 48.228C99.5699 48.0767 99.5781 47.8946 99.5781 47.6816V47.214C99.5781 47.0041 99.565 46.8266 99.539 46.6815C99.5162 46.5334 99.4787 46.413 99.4266 46.3204C99.3778 46.2247 99.3159 46.1568 99.241 46.1167C99.1661 46.0734 99.0815 46.0518 98.987 46.0518C98.8958 46.0518 98.8144 46.0734 98.7428 46.1167C98.6711 46.1568 98.6109 46.2247 98.562 46.3204C98.5132 46.413 98.4758 46.5334 98.4497 46.6815C98.4237 46.8266 98.4106 47.0041 98.4106 47.214Z" fill="#6048A6"/>
<path d="M106.029 46.4408V47.6492H103.46V46.4408H106.029Z" fill="#6048A6"/>
<path d="M68.7668 56.2465V57.4503H66.8276V56.2465H68.7668ZM67.3404 56.2465V61.2562H65.7334V56.2465H67.3404ZM69.8805 56.2465V61.2562H68.2734V56.2465H69.8805Z" fill="#6048A6"/>
<path d="M73.5183 57.2096V63.1823H71.9162V56.2465H73.406L73.5183 57.2096ZM76.156 58.506V58.9736C76.156 59.3687 76.1186 59.7144 76.0437 60.0108C75.972 60.3071 75.863 60.5556 75.7164 60.7562C75.5699 60.9537 75.3875 61.1019 75.1693 61.2007C74.9544 61.2995 74.7053 61.3488 74.422 61.3488C74.1647 61.3488 73.9482 61.2856 73.7723 61.159C73.5997 61.0294 73.4565 60.8519 73.3425 60.6266C73.2318 60.4012 73.1422 60.1435 73.0738 59.8533C73.0054 59.5601 72.9485 59.253 72.9029 58.9319V58.6125C72.9485 58.2668 73.0038 57.9442 73.0689 57.6448C73.1341 57.3454 73.2236 57.0846 73.3376 56.8623C73.4516 56.6401 73.5965 56.4672 73.7723 56.3437C73.9482 56.2172 74.1647 56.1539 74.422 56.1539C74.7086 56.1539 74.9593 56.2002 75.1742 56.2928C75.3891 56.3823 75.5699 56.5228 75.7164 56.7142C75.863 56.9055 75.972 57.1494 76.0437 57.4457C76.1186 57.742 76.156 58.0955 76.156 58.506ZM74.5539 58.9736V58.506C74.5539 58.2837 74.5441 58.0985 74.5246 57.9504C74.5083 57.8022 74.479 57.6849 74.4366 57.5985C74.3943 57.509 74.339 57.4472 74.2706 57.4133C74.2022 57.3762 74.1143 57.3577 74.0068 57.3577C73.8863 57.3577 73.7837 57.3809 73.6991 57.4272C73.6177 57.4704 73.5525 57.5398 73.5037 57.6355C73.4581 57.7281 73.4272 57.8454 73.4109 57.9874C73.3946 58.1263 73.3913 58.2915 73.4011 58.4828V59.0662C73.3848 59.2823 73.3913 59.4721 73.4206 59.6357C73.4499 59.7962 73.5118 59.9228 73.6063 60.0154C73.7039 60.1049 73.8407 60.1497 74.0166 60.1497C74.1273 60.1497 74.2168 60.1296 74.2852 60.0895C74.3569 60.0493 74.4122 59.983 74.4513 59.8904C74.4904 59.7978 74.5164 59.6758 74.5295 59.5246C74.5457 59.3733 74.5539 59.1897 74.5539 58.9736Z" fill="#6048A6"/>
<path d="M77.9036 58.9875V58.5199C77.9036 58.1248 77.9557 57.7806 78.0599 57.4874C78.1641 57.191 78.3122 56.9457 78.5044 56.7512C78.6965 56.5536 78.9261 56.4055 79.1931 56.3067C79.4601 56.2048 79.7581 56.1539 80.087 56.1539C80.4224 56.1539 80.7236 56.2048 80.9907 56.3067C81.2577 56.4055 81.4873 56.5536 81.6794 56.7512C81.8715 56.9457 82.0197 57.191 82.1239 57.4874C82.2281 57.7806 82.2802 58.1248 82.2802 58.5199V58.9875C82.2802 59.3795 82.2281 59.7237 82.1239 60.02C82.0197 60.3163 81.8715 60.5633 81.6794 60.7608C81.4905 60.9584 81.2609 61.1065 80.9907 61.2053C80.7236 61.301 80.4257 61.3488 80.0968 61.3488C79.7679 61.3488 79.4683 61.301 79.198 61.2053C78.9277 61.1065 78.6965 60.9584 78.5044 60.7608C78.3122 60.5633 78.1641 60.3163 78.0599 60.02C77.9557 59.7237 77.9036 59.3795 77.9036 58.9875ZM79.5106 58.5199V58.9875C79.5106 59.2005 79.5236 59.3826 79.5497 59.5339C79.5757 59.682 79.6132 59.8024 79.662 59.895C79.7141 59.9845 79.776 60.0493 79.8476 60.0895C79.9193 60.1296 80.0023 60.1497 80.0968 60.1497C80.2173 60.1497 80.3149 60.1296 80.3898 60.0895C80.468 60.0493 80.5282 59.9845 80.5706 59.895C80.6129 59.8024 80.6406 59.682 80.6536 59.5339C80.6699 59.3826 80.678 59.2005 80.678 58.9875V58.5199C80.678 58.31 80.665 58.1325 80.639 57.9874C80.6162 57.8393 80.5787 57.7189 80.5266 57.6263C80.4778 57.5306 80.4159 57.4627 80.341 57.4226C80.2661 57.3793 80.1814 57.3577 80.087 57.3577C79.9958 57.3577 79.9144 57.3793 79.8428 57.4226C79.7711 57.4627 79.7109 57.5306 79.662 57.6263C79.6132 57.7189 79.5757 57.8393 79.5497 57.9874C79.5236 58.1325 79.5106 58.31 79.5106 58.5199Z" fill="#6048A6"/>
<path d="M85.7764 59.1542L86.7094 56.2465H88.3115V61.2562H86.7094V58.3393L85.7764 61.2562H84.1645V56.2465H85.7764V59.1542Z" fill="#6048A6"/>
<path d="M92.6137 58.8671H91.6466V58.2374H92.2132C92.2914 58.2374 92.3532 58.2174 92.3988 58.1772C92.4477 58.1371 92.4835 58.0816 92.5063 58.0106C92.5323 57.9365 92.5454 57.8531 92.5454 57.7605C92.5454 57.6803 92.5405 57.6031 92.5307 57.529C92.5209 57.455 92.4949 57.3932 92.4525 57.3438C92.4102 57.2945 92.3435 57.2698 92.2523 57.2698C92.1741 57.2698 92.1074 57.2852 92.052 57.3161C91.9966 57.3469 91.9543 57.3948 91.925 57.4596C91.899 57.5213 91.8859 57.6016 91.8859 57.7004H90.2789C90.2789 57.3762 90.3619 57.1 90.528 56.8716C90.6941 56.6401 90.9171 56.4641 91.1972 56.3437C91.4805 56.2203 91.7947 56.1585 92.1399 56.1585C92.4428 56.1585 92.7163 56.191 92.9605 56.2558C93.208 56.3175 93.4197 56.4101 93.5955 56.5336C93.7714 56.657 93.9065 56.8098 94.001 56.992C94.0987 57.171 94.1475 57.3793 94.1475 57.617C94.1475 57.7868 94.1117 57.9473 94.0401 58.0985C93.9684 58.2498 93.8658 58.3841 93.7323 58.5014C93.5988 58.6156 93.436 58.7051 93.2439 58.7699C93.055 58.8347 92.8449 58.8671 92.6137 58.8671ZM91.6466 58.5338H92.6137C92.871 58.5338 93.0989 58.5631 93.2976 58.6217C93.4995 58.6773 93.6688 58.7606 93.8056 58.8718C93.9456 58.9829 94.0498 59.1202 94.1182 59.2838C94.1898 59.4443 94.2257 59.6295 94.2257 59.8394C94.2257 60.0771 94.1736 60.2901 94.0694 60.4784C93.9684 60.6636 93.8235 60.821 93.6346 60.9507C93.449 61.0803 93.2292 61.1791 92.9752 61.247C92.7212 61.3149 92.4428 61.3488 92.1399 61.3488C91.8208 61.3488 91.5131 61.2933 91.2167 61.1822C90.9237 61.071 90.6827 60.8997 90.4938 60.6682C90.3049 60.4367 90.2105 60.1389 90.2105 59.7746H91.8175C91.8175 59.858 91.8289 59.9351 91.8517 60.0061C91.8778 60.0771 91.9217 60.1342 91.9836 60.1774C92.0487 60.2176 92.1399 60.2376 92.2572 60.2376C92.3646 60.2376 92.4444 60.2114 92.4965 60.1589C92.5519 60.1064 92.5877 60.0385 92.604 59.9552C92.6203 59.8719 92.6284 59.787 92.6284 59.7005C92.6284 59.5678 92.6121 59.4613 92.5795 59.3811C92.547 59.3008 92.4998 59.2422 92.4379 59.2051C92.376 59.165 92.3011 59.1449 92.2132 59.1449H91.6466V58.5338Z" fill="#6048A6"/>
<path d="M98.4595 59.2144H97.1602L97.1504 58.2513H98.2152C98.2934 58.2513 98.352 58.2374 98.3911 58.2097C98.4334 58.1819 98.4611 58.1402 98.4741 58.0846C98.4904 58.026 98.4986 57.9565 98.4986 57.8763C98.4986 57.796 98.492 57.7281 98.479 57.6726C98.466 57.617 98.4464 57.5723 98.4204 57.5383C98.3943 57.5043 98.3602 57.4797 98.3178 57.4642C98.2787 57.4488 98.2315 57.4411 98.1762 57.4411H97.8V61.2562H96.1979V56.2465H98.1762C98.4758 56.2465 98.7444 56.2758 98.9821 56.3345C99.2198 56.39 99.4201 56.4765 99.5829 56.5938C99.749 56.708 99.876 56.8531 99.9639 57.029C100.055 57.2049 100.101 57.4117 100.101 57.6494C100.101 57.8038 100.067 57.9488 99.9981 58.0846C99.9297 58.2205 99.8288 58.3408 99.6953 58.4458C99.5618 58.5507 99.3973 58.6372 99.2019 58.7051C99.0066 58.7699 98.7819 58.81 98.5279 58.8255L98.4595 59.2144ZM98.4595 61.2562H96.8085L97.3067 60.0617H98.4595C98.5441 60.0617 98.6093 60.0462 98.6549 60.0154C98.7004 59.9845 98.733 59.9382 98.7526 59.8765C98.7721 59.8147 98.7819 59.7391 98.7819 59.6496C98.7819 59.5632 98.7753 59.4876 98.7623 59.4227C98.7493 59.3579 98.72 59.307 98.6744 59.2699C98.6321 59.2329 98.5604 59.2144 98.4595 59.2144H97.3849L97.3946 58.2513H98.5034L98.8307 58.6449C99.2019 58.6665 99.5015 58.7329 99.7295 58.844C99.9574 58.9551 100.124 59.0955 100.228 59.2653C100.332 59.4351 100.384 59.6218 100.384 59.8256C100.384 60.0632 100.343 60.2716 100.262 60.4506C100.18 60.6296 100.058 60.7793 99.8956 60.8997C99.7327 61.017 99.5308 61.1065 99.2899 61.1683C99.0521 61.2269 98.7753 61.2562 98.4595 61.2562Z" fill="#6048A6"/>
<path d="M102.078 58.9875V58.5199C102.078 58.1248 102.13 57.7806 102.234 57.4874C102.338 57.191 102.486 56.9457 102.679 56.7512C102.871 56.5536 103.1 56.4055 103.367 56.3067C103.634 56.2048 103.932 56.1539 104.261 56.1539C104.597 56.1539 104.898 56.2048 105.165 56.3067C105.432 56.4055 105.662 56.5536 105.854 56.7512C106.046 56.9457 106.194 57.191 106.298 57.4874C106.402 57.7806 106.454 58.1248 106.454 58.5199V58.9875C106.454 59.3795 106.402 59.7237 106.298 60.02C106.194 60.3163 106.046 60.5633 105.854 60.7608C105.665 60.9584 105.435 61.1065 105.165 61.2053C104.898 61.301 104.6 61.3488 104.271 61.3488C103.942 61.3488 103.643 61.301 103.372 61.2053C103.102 61.1065 102.871 60.9584 102.679 60.7608C102.486 60.5633 102.338 60.3163 102.234 60.02C102.13 59.7237 102.078 59.3795 102.078 58.9875ZM103.685 58.5199V58.9875C103.685 59.2005 103.698 59.3826 103.724 59.5339C103.75 59.682 103.787 59.8024 103.836 59.895C103.888 59.9845 103.95 60.0493 104.022 60.0895C104.094 60.1296 104.177 60.1497 104.271 60.1497C104.392 60.1497 104.489 60.1296 104.564 60.0895C104.642 60.0493 104.702 59.9845 104.745 59.895C104.787 59.8024 104.815 59.682 104.828 59.5339C104.844 59.3826 104.852 59.2005 104.852 58.9875V58.5199C104.852 58.31 104.839 58.1325 104.813 57.9874C104.79 57.8393 104.753 57.7189 104.701 57.6263C104.652 57.5306 104.59 57.4627 104.515 57.4226C104.44 57.3793 104.356 57.3577 104.261 57.3577C104.17 57.3577 104.089 57.3793 104.017 57.4226C103.945 57.4627 103.885 57.5306 103.836 57.6263C103.787 57.7189 103.75 57.8393 103.724 57.9874C103.698 58.1325 103.685 58.31 103.685 58.5199Z" fill="#6048A6"/>
<path d="M108.837 56.2465H110.444L110.434 57.8254C110.428 58.3933 110.366 58.881 110.249 59.2885C110.135 59.6928 109.978 60.0308 109.78 60.3024C109.581 60.571 109.351 60.7824 109.091 60.9368C108.83 61.088 108.554 61.1945 108.261 61.2562H108.114L108.075 60.0709L108.187 60.0524C108.37 59.8672 108.506 59.6913 108.598 59.5246C108.692 59.3548 108.754 59.1851 108.783 59.0153C108.816 58.8455 108.832 58.6649 108.832 58.4736C108.832 58.2791 108.832 58.063 108.832 57.8254L108.837 56.2465ZM109.272 56.2465H112.496V61.2562H110.893V57.4503H109.272V56.2465ZM107.777 60.0524H113.223V62.7749H111.616V61.2562H109.428V62.7749H107.777V60.0524Z" fill="#6048A6"/>
<path d="M116.93 60.1497C117.04 60.1497 117.13 60.1311 117.198 60.0941C117.267 60.0571 117.316 59.9907 117.345 59.895C117.377 59.7962 117.39 59.6542 117.384 59.469H118.883C118.89 59.8827 118.809 60.2299 118.639 60.5108C118.473 60.7886 118.245 60.9985 117.955 61.1405C117.666 61.2794 117.337 61.3488 116.969 61.3488C116.611 61.3488 116.298 61.2995 116.031 61.2007C115.764 61.0988 115.541 60.9491 115.362 60.7516C115.186 60.554 115.054 60.3086 114.966 60.0154C114.878 59.7221 114.834 59.3811 114.834 58.9921V58.5152C114.834 58.1263 114.878 57.7852 114.966 57.492C115.054 57.1957 115.186 56.9487 115.362 56.7512C115.541 56.5536 115.762 56.4055 116.026 56.3067C116.293 56.2048 116.604 56.1539 116.959 56.1539C117.343 56.1539 117.68 56.2249 117.97 56.3669C118.26 56.5089 118.486 56.728 118.649 57.0244C118.812 57.3207 118.89 57.7004 118.883 58.1634H117.384C117.39 57.972 117.379 57.8176 117.35 57.7004C117.324 57.58 117.276 57.4935 117.208 57.4411C117.14 57.3855 117.044 57.3577 116.92 57.3577C116.799 57.3577 116.707 57.3793 116.641 57.4226C116.576 57.4658 116.529 57.5337 116.5 57.6263C116.47 57.7189 116.453 57.8393 116.446 57.9874C116.443 58.1325 116.441 58.3084 116.441 58.5152V58.9921C116.441 59.202 116.444 59.3811 116.451 59.5292C116.457 59.6774 116.475 59.7978 116.505 59.8904C116.534 59.9799 116.581 60.0462 116.646 60.0895C116.715 60.1296 116.809 60.1497 116.93 60.1497Z" fill="#6048A6"/>
<path d="M123.479 56.2465V61.2562H121.872V56.2465H123.479ZM124.817 56.2465V57.4411H120.548V56.2465H124.817Z" fill="#6048A6"/>
<path d="M129.031 59.2144H127.732L127.722 58.2513H128.787C128.865 58.2513 128.924 58.2374 128.963 58.2097C129.005 58.1819 129.033 58.1402 129.046 58.0846C129.062 58.026 129.071 57.9565 129.071 57.8763C129.071 57.796 129.064 57.7281 129.051 57.6726C129.038 57.617 129.018 57.5723 128.992 57.5383C128.966 57.5043 128.932 57.4797 128.89 57.4642C128.851 57.4488 128.803 57.4411 128.748 57.4411H128.372V61.2562H126.77V56.2465H128.748C129.048 56.2465 129.316 56.2758 129.554 56.3345C129.792 56.39 129.992 56.4765 130.155 56.5938C130.321 56.708 130.448 56.8531 130.536 57.029C130.627 57.2049 130.673 57.4117 130.673 57.6494C130.673 57.8038 130.638 57.9488 130.57 58.0846C130.502 58.2205 130.401 58.3408 130.267 58.4458C130.134 58.5507 129.969 58.6372 129.774 58.7051C129.579 58.7699 129.354 58.81 129.1 58.8255L129.031 59.2144ZM129.031 61.2562H127.38L127.879 60.0617H129.031C129.116 60.0617 129.181 60.0462 129.227 60.0154C129.272 59.9845 129.305 59.9382 129.325 59.8765C129.344 59.8147 129.354 59.7391 129.354 59.6496C129.354 59.5632 129.347 59.4876 129.334 59.4227C129.321 59.3579 129.292 59.307 129.246 59.2699C129.204 59.2329 129.132 59.2144 129.031 59.2144H127.957L127.967 58.2513H129.075L129.403 58.6449C129.774 58.6665 130.073 58.7329 130.301 58.844C130.529 58.9551 130.695 59.0955 130.8 59.2653C130.904 59.4351 130.956 59.6218 130.956 59.8256C130.956 60.0632 130.915 60.2716 130.834 60.4506C130.752 60.6296 130.63 60.7793 130.468 60.8997C130.305 61.017 130.103 61.1065 129.862 61.1683C129.624 61.2269 129.347 61.2562 129.031 61.2562Z" fill="#6048A6"/>
<path d="M135.053 61.3488C134.675 61.3488 134.338 61.2995 134.042 61.2007C133.749 61.1019 133.503 60.9568 133.304 60.7655C133.106 60.571 132.954 60.3349 132.85 60.0571C132.749 59.7792 132.699 59.4613 132.699 59.1033V58.5569C132.699 58.1556 132.743 57.8053 132.83 57.5059C132.922 57.2065 133.057 56.958 133.236 56.7605C133.415 56.5598 133.643 56.4086 133.92 56.3067C134.197 56.2048 134.522 56.1539 134.897 56.1539C135.226 56.1539 135.517 56.2002 135.771 56.2928C136.028 56.3854 136.245 56.5289 136.421 56.7234C136.6 56.9148 136.737 57.1602 136.831 57.4596C136.925 57.7559 136.973 58.1078 136.973 58.5152V59.2422H133.299V58.2652H135.405V58.0939C135.408 57.8902 135.388 57.7359 135.346 57.6309C135.307 57.526 135.248 57.455 135.17 57.4179C135.092 57.3778 134.996 57.3577 134.882 57.3577C134.749 57.3577 134.643 57.3793 134.565 57.4226C134.486 57.4658 134.429 57.5337 134.394 57.6263C134.358 57.7189 134.333 57.8423 134.32 57.9967C134.311 58.151 134.306 58.3378 134.306 58.5569V59.1033C134.306 59.3193 134.324 59.4953 134.359 59.6311C134.398 59.7669 134.454 59.8719 134.525 59.9459C134.6 60.02 134.69 60.0725 134.794 60.1034C134.902 60.1311 135.024 60.145 135.16 60.145C135.356 60.145 135.546 60.1142 135.732 60.0524C135.918 59.9876 136.076 59.8827 136.206 59.7376L136.86 60.6821C136.772 60.7901 136.642 60.8966 136.47 61.0016C136.297 61.1034 136.092 61.1868 135.854 61.2516C135.616 61.3164 135.349 61.3488 135.053 61.3488Z" fill="#6048A6"/>
<path d="M141.91 58.2004V59.3996H139.824V58.2004H141.91ZM140.41 56.2465V61.2562H138.803V56.2465H140.41ZM142.936 56.2465V61.2562H141.329V56.2465H142.936Z" fill="#6048A6"/>
<path d="M148.044 58.2004V59.3996H145.958V58.2004H148.044ZM146.544 56.2465V61.2562H144.937V56.2465H146.544ZM149.07 56.2465V61.2562H147.463V56.2465H149.07Z" fill="#6048A6"/>
<path d="M153.318 59.9969V57.793C153.318 57.651 153.307 57.5429 153.284 57.4689C153.261 57.3917 153.224 57.3377 153.171 57.3068C153.123 57.2728 153.049 57.2559 152.952 57.2559C152.874 57.2559 152.81 57.2744 152.761 57.3114C152.712 57.3485 152.678 57.4056 152.659 57.4827C152.639 57.5599 152.629 57.6618 152.629 57.7883H151.022C151.022 57.5568 151.069 57.3423 151.164 57.1447C151.258 56.9441 151.393 56.7697 151.569 56.6215C151.745 56.4734 151.955 56.3592 152.199 56.2789C152.447 56.1956 152.724 56.1539 153.03 56.1539C153.391 56.1539 153.715 56.2095 154.002 56.3206C154.288 56.4286 154.515 56.603 154.681 56.8438C154.85 57.0846 154.935 57.404 154.935 57.8022V59.9922C154.935 60.3194 154.953 60.5679 154.989 60.7377C155.024 60.9044 155.073 61.051 155.135 61.1775V61.2562H153.533C153.458 61.1019 153.403 60.9136 153.367 60.6914C153.334 60.466 153.318 60.2345 153.318 59.9969ZM153.499 58.1958L153.509 59.0292H153.093C152.992 59.0292 152.906 59.0523 152.834 59.0986C152.763 59.1418 152.703 59.2005 152.654 59.2746C152.608 59.3487 152.576 59.432 152.556 59.5246C152.536 59.6141 152.527 59.7067 152.527 59.8024C152.527 59.9382 152.541 60.037 152.571 60.0987C152.603 60.1605 152.642 60.2006 152.688 60.2191C152.737 60.2345 152.79 60.2423 152.849 60.2423C152.973 60.2423 153.075 60.2176 153.157 60.1682C153.241 60.1157 153.302 60.054 153.338 59.983C153.373 59.912 153.383 59.8518 153.367 59.8024L153.533 60.4136C153.478 60.5278 153.424 60.6404 153.372 60.7516C153.32 60.8596 153.255 60.9599 153.176 61.0525C153.098 61.142 153.002 61.213 152.888 61.2655C152.774 61.3211 152.631 61.3488 152.458 61.3488C152.185 61.3488 151.931 61.2964 151.696 61.1914C151.465 61.0865 151.278 60.9244 151.135 60.7053C150.995 60.4861 150.925 60.2083 150.925 59.8719C150.925 59.6403 150.962 59.4243 151.037 59.2236C151.115 59.0199 151.237 58.8409 151.403 58.6866C151.569 58.5322 151.792 58.4118 152.072 58.3254C152.356 58.239 152.701 58.1958 153.108 58.1958H153.499Z" fill="#6048A6"/>
<path d="M157.962 58.7051H159.555L158.338 61.2562H156.751L157.962 58.7051ZM158.92 56.2465H160.981V61.2562H159.384V57.4411H158.92C158.819 57.4411 158.731 57.4704 158.656 57.529C158.584 57.5877 158.529 57.6633 158.49 57.7559C158.451 57.8454 158.431 57.9365 158.431 58.0291C158.431 58.1186 158.451 58.2066 158.49 58.293C158.532 58.3794 158.594 58.452 158.675 58.5106C158.757 58.5662 158.854 58.594 158.968 58.594H160.009V59.5987H158.968C158.643 59.5987 158.348 59.5585 158.084 59.4783C157.82 59.398 157.594 59.2854 157.405 59.1403C157.22 58.9921 157.076 58.8193 156.975 58.6217C156.878 58.4242 156.829 58.2081 156.829 57.9735C156.829 57.7235 156.878 57.4935 156.975 57.2836C157.073 57.0738 157.213 56.8916 157.396 56.7373C157.581 56.5799 157.801 56.4595 158.055 56.3762C158.312 56.2897 158.6 56.2465 158.92 56.2465Z" fill="#6048A6"/>
<path d="M67.4821 67.5524V72.5621H65.8751V67.5524H67.4821ZM70.3445 67.5524L68.5567 70.812H67.2769L67.0913 69.3535H67.7947L68.2978 67.5524H70.3445ZM68.2832 72.5621L67.6873 70.5203L69.1868 69.8674L70.452 72.5621H68.2832Z" fill="#6048A6"/>
<path d="M71.6719 70.2934V69.8258C71.6719 69.4307 71.724 69.0865 71.8283 68.7933C71.9325 68.4969 72.0806 68.2515 72.2728 68.0571C72.4649 67.8595 72.6945 67.7114 72.9615 67.6126C73.2285 67.5107 73.5265 67.4598 73.8554 67.4598C74.1908 67.4598 74.492 67.5107 74.759 67.6126C75.0261 67.7114 75.2556 67.8595 75.4478 68.0571C75.6399 68.2515 75.7881 68.4969 75.8923 68.7933C75.9965 69.0865 76.0486 69.4307 76.0486 69.8258V70.2934C76.0486 70.6854 75.9965 71.0296 75.8923 71.3259C75.7881 71.6222 75.6399 71.8692 75.4478 72.0667C75.2589 72.2643 75.0293 72.4124 74.759 72.5112C74.492 72.6069 74.194 72.6547 73.8651 72.6547C73.5362 72.6547 73.2367 72.6069 72.9664 72.5112C72.6961 72.4124 72.4649 72.2643 72.2728 72.0667C72.0806 71.8692 71.9325 71.6222 71.8283 71.3259C71.724 71.0296 71.6719 70.6854 71.6719 70.2934ZM73.279 69.8258V70.2934C73.279 70.5064 73.292 70.6885 73.3181 70.8397C73.3441 70.9879 73.3816 71.1083 73.4304 71.2009C73.4825 71.2904 73.5444 71.3552 73.616 71.3954C73.6877 71.4355 73.7707 71.4555 73.8651 71.4555C73.9856 71.4555 74.0833 71.4355 74.1582 71.3954C74.2364 71.3552 74.2966 71.2904 74.339 71.2009C74.3813 71.1083 74.409 70.9879 74.422 70.8397C74.4383 70.6885 74.4464 70.5064 74.4464 70.2934V69.8258C74.4464 69.6159 74.4334 69.4384 74.4073 69.2933C74.3845 69.1451 74.3471 69.0248 74.295 68.9322C74.2461 68.8365 74.1843 68.7686 74.1094 68.7284C74.0345 68.6852 73.9498 68.6636 73.8554 68.6636C73.7642 68.6636 73.6828 68.6852 73.6111 68.7284C73.5395 68.7686 73.4793 68.8365 73.4304 68.9322C73.3816 69.0248 73.3441 69.1451 73.3181 69.2933C73.292 69.4384 73.279 69.6159 73.279 69.8258Z" fill="#6048A6"/>
<path d="M80.8295 70.8397L81.6403 67.5524H82.8664L81.3668 72.5621H80.297L78.7975 67.5524H80.0284L80.8295 70.8397ZM79.6718 67.5524V72.5621H78.0696V67.5524H79.6718ZM82.0506 72.5621V67.5524H83.6528V72.5621H82.0506Z" fill="#6048A6"/>
<path d="M88.8879 67.5524V68.7562H86.9487V67.5524H88.8879ZM87.4616 67.5524V72.5621H85.8546V67.5524H87.4616ZM90.0016 67.5524V72.5621H88.3946V67.5524H90.0016Z" fill="#6048A6"/>
<path d="M94.2354 71.3028V69.0988C94.2354 68.9569 94.224 68.8488 94.2012 68.7747C94.1784 68.6976 94.141 68.6436 94.0889 68.6127C94.0401 68.5787 93.9668 68.5618 93.8691 68.5618C93.7909 68.5618 93.7274 68.5803 93.6786 68.6173C93.6297 68.6544 93.5955 68.7115 93.576 68.7886C93.5565 68.8658 93.5467 68.9677 93.5467 69.0942H91.9397C91.9397 68.8627 91.9869 68.6482 92.0813 68.4506C92.1757 68.25 92.3109 68.0756 92.4867 67.9274C92.6626 67.7793 92.8726 67.6651 93.1169 67.5848C93.3643 67.5015 93.6411 67.4598 93.9472 67.4598C94.3087 67.4598 94.6327 67.5154 94.9193 67.6265C95.2059 67.7345 95.4322 67.9089 95.5982 68.1497C95.7676 68.3904 95.8522 68.7099 95.8522 69.1081V71.2981C95.8522 71.6253 95.8702 71.8738 95.906 72.0436C95.9418 72.2102 95.9906 72.3569 96.0525 72.4834V72.5621H94.4504C94.3755 72.4078 94.3201 72.2195 94.2843 71.9973C94.2517 71.7719 94.2354 71.5404 94.2354 71.3028ZM94.4162 69.5017L94.4259 70.3351H94.0107C93.9098 70.3351 93.8235 70.3582 93.7519 70.4045C93.6802 70.4477 93.62 70.5064 93.5711 70.5805C93.5255 70.6545 93.493 70.7379 93.4734 70.8305C93.4539 70.92 93.4441 71.0126 93.4441 71.1083C93.4441 71.2441 93.4588 71.3429 93.4881 71.4046C93.5207 71.4663 93.5597 71.5065 93.6053 71.525C93.6542 71.5404 93.7079 71.5481 93.7665 71.5481C93.8903 71.5481 93.9928 71.5235 94.0742 71.4741C94.1589 71.4216 94.2192 71.3599 94.255 71.2889C94.2908 71.2179 94.3006 71.1577 94.2843 71.1083L94.4504 71.7195C94.395 71.8337 94.3413 71.9463 94.2892 72.0575C94.2371 72.1655 94.1719 72.2658 94.0938 72.3584C94.0156 72.4479 93.9196 72.5189 93.8056 72.5714C93.6916 72.6269 93.5483 72.6547 93.3757 72.6547C93.1022 72.6547 92.8482 72.6023 92.6137 72.4973C92.3825 72.3924 92.1953 72.2303 92.052 72.0112C91.912 71.792 91.842 71.5142 91.842 71.1777C91.842 70.9462 91.8794 70.7302 91.9543 70.5295C92.0325 70.3258 92.1546 70.1468 92.3207 69.9924C92.4867 69.8381 92.7098 69.7177 92.9899 69.6313C93.2732 69.5449 93.6183 69.5017 94.0254 69.5017H94.4162Z" fill="#6048A6"/>
<path d="M100.965 69.5063V70.7055H98.8796V69.5063H100.965ZM99.4657 67.5524V72.5621H97.8587V67.5524H99.4657ZM101.991 67.5524V72.5621H100.384V67.5524H101.991Z" fill="#6048A6"/>
<path d="M105.605 70.4601L106.537 67.5524H108.14V72.5621H106.537V69.6452L105.605 72.5621H103.993V67.5524H105.605V70.4601Z" fill="#6048A6"/>
<path d="M111.147 70.011H112.74L111.524 72.5621H109.936L111.147 70.011ZM112.105 67.5524H114.166V72.5621H112.569V68.747H112.105C112.004 68.747 111.916 68.7763 111.841 68.8349C111.769 68.8936 111.714 68.9692 111.675 69.0618C111.636 69.1513 111.616 69.2424 111.616 69.335C111.616 69.4245 111.636 69.5125 111.675 69.5989C111.717 69.6853 111.779 69.7579 111.861 69.8165C111.942 69.8721 112.04 69.8998 112.154 69.8998H113.194V70.9046H112.154C111.828 70.9046 111.533 70.8644 111.27 70.7842C111.006 70.7039 110.779 70.5913 110.591 70.4462C110.405 70.298 110.262 70.1252 110.161 69.9276C110.063 69.7301 110.014 69.514 110.014 69.2794C110.014 69.0294 110.063 68.7994 110.161 68.5895C110.258 68.3796 110.398 68.1975 110.581 68.0432C110.766 67.8858 110.986 67.7654 111.24 67.682C111.497 67.5956 111.786 67.5524 112.105 67.5524Z" fill="#6048A6"/>
<path d="M6.70801 38.8873H42.9289L51.8164 73.6141V4.64062L61.8777 38.8873H164" stroke="#6048A6" stroke-width="4" stroke-linejoin="round"/>
<path d="M49.124 75.4017C49.3493 76.3998 48.7118 77.3924 47.7016 77.5546C42.3085 78.4201 36.7818 78.246 31.4491 77.0357C25.5106 75.6878 19.9633 73.0889 15.2137 69.4295C10.4642 65.7701 6.63282 61.143 4.00035 55.8871C1.36788 50.6312 0.00104465 44.8797 5.98477e-07 39.0543C-0.00104345 33.2288 1.36373 27.477 3.99432 22.2202C6.6249 16.9635 10.4546 12.335 15.2028 8.67409C19.9511 5.01315 25.4974 2.41248 31.4355 1.06267C36.7677 -0.149412 42.2945 -0.325288 47.6878 0.538481C48.6981 0.700287 49.3359 1.69267 49.111 2.69082C48.892 3.66219 47.9363 4.275 46.9526 4.12017C42.0957 3.35566 37.1216 3.5205 32.3213 4.61166C26.938 5.83536 21.9099 8.19304 17.6053 11.5119C13.3007 14.8308 9.82878 19.0268 7.44398 23.7924C5.05917 28.558 3.82191 33.7725 3.82286 39.0537C3.8238 44.3348 5.06294 49.5489 7.44945 54.3137C9.83596 59.0786 13.3094 63.2734 17.6151 66.5909C21.9209 69.9084 26.9499 72.2644 32.3337 73.4864C37.1343 74.576 42.1085 74.7392 46.9652 73.9731C47.9487 73.8179 48.9047 74.4304 49.124 75.4017Z" fill="#6048A6"/>
<path d="M48.462 72.3343C43.6363 73.3675 37.1134 72.9137 32.2857 71.8888C27.458 70.8639 22.941 68.8361 19.0718 65.9569C15.2026 63.0777 12.081 59.4214 9.94011 55.2607C7.79918 51.1001 5.68791 46.6377 5.70123 42.0234L40.5957 42.0234L48.462 72.3343Z" fill="#6048A6"/>
<path d="M77.5374 23.7818V26.5323C77.5374 27.8409 77.3671 28.9911 77.0265 29.983C76.6859 30.9749 76.2012 31.8084 75.5723 32.4835C74.9435 33.1503 74.1968 33.6545 73.3321 33.9963C72.4762 34.3297 71.5242 34.4964 70.4762 34.4964C69.4194 34.4964 68.4586 34.3297 67.594 33.9963C66.7294 33.6545 65.9826 33.1503 65.3538 32.4835C64.7249 31.8084 64.2402 30.9749 63.8996 29.983C63.559 28.9911 63.3887 27.8409 63.3887 26.5323V23.7818C63.3887 22.4732 63.559 21.3188 63.8996 20.3186C64.2402 19.3184 64.7206 18.4849 65.3407 17.8181C65.9695 17.1513 66.7163 16.6471 67.5809 16.3053C68.4455 15.9636 69.4063 15.7927 70.4631 15.7927C71.5111 15.7927 72.4675 15.9636 73.3321 16.3053C74.2055 16.6471 74.9522 17.1513 75.5723 17.8181C76.1924 18.4849 76.6728 19.3184 77.0134 20.3186C77.3628 21.3188 77.5374 22.4732 77.5374 23.7818ZM72.9915 26.5323V23.7568C72.9915 22.94 72.9391 22.244 72.8343 21.6689C72.7295 21.0938 72.5723 20.627 72.3627 20.2686C72.1531 19.9102 71.891 19.6476 71.5766 19.4809C71.2622 19.3142 70.891 19.2309 70.4631 19.2309C70.0176 19.2309 69.6377 19.3142 69.3233 19.4809C69.0089 19.6476 68.7469 19.9102 68.5373 20.2686C68.3364 20.627 68.1879 21.0938 68.0918 21.6689C67.9958 22.244 67.9477 22.94 67.9477 23.7568V26.5323C67.9477 27.3408 67.9958 28.0326 68.0918 28.6077C68.1879 29.1745 68.3364 29.6413 68.5373 30.008C68.7469 30.3747 69.0132 30.6456 69.3364 30.8207C69.6595 30.9874 70.0395 31.0707 70.4762 31.0707C70.8954 31.0707 71.2622 30.9874 71.5766 30.8207C71.8998 30.6456 72.1618 30.3747 72.3627 30.008C72.5723 29.6413 72.7295 29.1745 72.8343 28.6077C72.9391 28.0326 72.9915 27.3408 72.9915 26.5323Z" fill="#6048A6"/>
<path d="M84.7617 28.5702L87.2639 20.7187H91.561V34.2463H87.2639V26.3698L84.7617 34.2463H80.4385V20.7187H84.7617V28.5702ZM87.9452 15.0176H90.9714C90.9714 15.7677 90.7706 16.4345 90.3688 17.018C89.9758 17.5931 89.4168 18.0432 88.6919 18.3682C87.967 18.6933 87.1111 18.8558 86.1242 18.8558C84.6307 18.8558 83.4473 18.5016 82.5739 17.7931C81.7005 17.0763 81.2638 16.1511 81.2638 15.0176H84.277C84.277 15.426 84.4167 15.7927 84.6962 16.1178C84.9757 16.4429 85.4517 16.6054 86.1242 16.6054C86.7967 16.6054 87.2683 16.4429 87.5391 16.1178C87.8098 15.7927 87.9452 15.426 87.9452 15.0176Z" fill="#6048A6"/>
<path d="M102.611 20.7187V23.9693H96.7939V20.7187H102.611ZM105.598 20.7187V34.2463H101.301V20.7187H105.598ZM95.7197 20.7187H99.9119L99.5582 27.6825C99.5145 28.6494 99.4097 29.4954 99.2438 30.2205C99.0866 30.9457 98.8726 31.5666 98.6018 32.0834C98.3398 32.5918 98.0298 33.0086 97.6717 33.3337C97.3136 33.6504 96.9118 33.8838 96.4664 34.0338C96.0297 34.1755 95.5581 34.2463 95.0515 34.2463H93.7808L93.7153 31.0207L94.1214 30.9707C94.2873 30.9457 94.4402 30.8707 94.5799 30.7456C94.7197 30.6206 94.8376 30.4456 94.9336 30.2205C95.0384 29.9955 95.1258 29.7079 95.1956 29.3579C95.2742 29.0078 95.3398 28.5952 95.3922 28.1201C95.4446 27.645 95.4795 27.0991 95.497 26.4823L95.7197 20.7187Z" fill="#6048A6"/>
<path d="M117.656 28.0826H122.136C122.145 29.4496 121.866 30.6165 121.298 31.5833C120.739 32.5418 119.949 33.267 118.927 33.7587C117.905 34.2505 116.708 34.4964 115.337 34.4964C114.228 34.4964 113.245 34.313 112.39 33.9463C111.534 33.5795 110.813 33.0461 110.228 32.346C109.643 31.6458 109.202 30.7998 108.905 29.808C108.608 28.8078 108.459 27.6742 108.459 26.4073V23.8693C108.459 22.6107 108.617 21.4813 108.931 20.4811C109.254 19.4809 109.708 18.6308 110.293 17.9306C110.887 17.2305 111.604 16.6971 112.442 16.3303C113.289 15.9636 114.232 15.7802 115.272 15.7802C116.73 15.7802 117.962 16.0428 118.966 16.5679C119.979 17.0846 120.757 17.8348 121.298 18.8183C121.84 19.7935 122.128 20.9646 122.163 22.3315H117.682C117.726 21.5397 117.674 20.9187 117.525 20.4686C117.377 20.0102 117.115 19.6893 116.739 19.506C116.372 19.3142 115.883 19.2184 115.272 19.2184C114.852 19.2184 114.499 19.2976 114.211 19.4559C113.922 19.6143 113.691 19.8769 113.516 20.2436C113.342 20.602 113.215 21.0771 113.136 21.6689C113.058 22.2607 113.018 22.9858 113.018 23.8443V26.4073C113.018 27.2825 113.049 28.0159 113.11 28.6077C113.171 29.1995 113.285 29.6788 113.451 30.0455C113.625 30.4039 113.861 30.6623 114.158 30.8207C114.464 30.979 114.857 31.0582 115.337 31.0582C115.844 31.0582 116.276 30.979 116.634 30.8207C116.992 30.654 117.263 30.3581 117.446 29.933C117.63 29.4996 117.7 28.8828 117.656 28.0826Z" fill="#6048A6"/>
<path d="M130.828 34.4964C129.815 34.4964 128.911 34.363 128.116 34.0963C127.33 33.8296 126.671 33.4378 126.138 32.9211C125.605 32.396 125.199 31.7583 124.92 31.0082C124.649 30.2581 124.513 29.3996 124.513 28.4327V26.9574C124.513 25.8739 124.631 24.9278 124.867 24.1194C125.112 23.3109 125.474 22.6399 125.955 22.1065C126.435 21.5647 127.046 21.1563 127.789 20.8812C128.531 20.6062 129.404 20.4686 130.409 20.4686C131.291 20.4686 132.073 20.5937 132.754 20.8437C133.444 21.0938 134.025 21.4813 134.496 22.0064C134.977 22.5232 135.343 23.1858 135.597 23.9943C135.85 24.7945 135.977 25.7447 135.977 26.8449V28.8078H126.125V26.1698H131.771V25.7072C131.78 25.1571 131.728 24.7403 131.614 24.4569C131.509 24.1735 131.352 23.9818 131.142 23.8818C130.933 23.7735 130.675 23.7193 130.369 23.7193C130.011 23.7193 129.728 23.7776 129.518 23.8943C129.308 24.011 129.156 24.1944 129.059 24.4444C128.963 24.6945 128.898 25.0279 128.863 25.4446C128.837 25.8614 128.824 26.3656 128.824 26.9574V28.4327C128.824 29.0161 128.872 29.4912 128.968 29.858C129.073 30.2247 129.221 30.5081 129.413 30.7081C129.614 30.9082 129.854 31.0499 130.134 31.1332C130.422 31.2082 130.749 31.2457 131.116 31.2457C131.64 31.2457 132.151 31.1624 132.649 30.9957C133.147 30.8207 133.57 30.5373 133.92 30.1455L135.675 32.696C135.439 32.9877 135.09 33.2753 134.627 33.5587C134.164 33.8337 133.614 34.0588 132.977 34.2338C132.339 34.4089 131.623 34.4964 130.828 34.4964Z" fill="#6048A6"/>
<path d="M146.804 25.9947V29.2329H141.21V25.9947H146.804ZM142.782 20.7187V34.2463H138.472V20.7187H142.782ZM149.555 20.7187V34.2463H145.245V20.7187H149.555Z" fill="#6048A6"/>
<path d="M157.814 31.2582C158.111 31.2582 158.351 31.2082 158.534 31.1082C158.718 31.0082 158.849 30.829 158.927 30.5706C159.015 30.3039 159.05 29.9205 159.032 29.4204H163.054C163.072 30.5373 162.853 31.475 162.399 32.2334C161.954 32.9836 161.342 33.5504 160.565 33.9338C159.788 34.3088 158.906 34.4964 157.919 34.4964C156.958 34.4964 156.12 34.363 155.403 34.0963C154.687 33.8212 154.089 33.417 153.609 32.8836C153.137 32.3501 152.783 31.6875 152.547 30.8957C152.312 30.1039 152.194 29.1828 152.194 28.1326V26.8449C152.194 25.7947 152.312 24.8737 152.547 24.0818C152.783 23.2817 153.137 22.6149 153.609 22.0815C154.089 21.548 154.683 21.1479 155.39 20.8812C156.106 20.6062 156.941 20.4686 157.893 20.4686C158.923 20.4686 159.827 20.6603 160.604 21.0438C161.382 21.4272 161.989 22.0189 162.425 22.8191C162.862 23.6193 163.072 24.6445 163.054 25.8947H159.032C159.05 25.3779 159.019 24.9612 158.941 24.6445C158.871 24.3194 158.744 24.086 158.561 23.9443C158.377 23.7943 158.12 23.7193 157.788 23.7193C157.465 23.7193 157.216 23.7776 157.041 23.8943C156.866 24.011 156.74 24.1944 156.661 24.4444C156.582 24.6945 156.534 25.0195 156.517 25.4196C156.508 25.8113 156.504 26.2864 156.504 26.8449V28.1326C156.504 28.6994 156.513 29.1828 156.53 29.5829C156.548 29.983 156.596 30.3081 156.674 30.5581C156.753 30.7998 156.879 30.979 157.054 31.0957C157.237 31.2041 157.491 31.2582 157.814 31.2582Z" fill="#6048A6"/>
</svg>
