<svg width="44" height="44" viewBox="0 0 44 44" fill="none" xmlns="http://www.w3.org/2000/svg">
<rect x="20.8" y="37.6" width="2.4" height="6" fill="black"/>
<rect x="37.6" y="23.2" width="2.4" height="6" transform="rotate(-90 37.6 23.2)" fill="black"/>
<rect x="20.8" y="0.400024" width="2.4" height="6" fill="black"/>
<rect x="0.400024" y="23.2" width="2.4" height="6" transform="rotate(-90 0.400024 23.2)" fill="black"/>
<mask id="path-5-inside-1_281_1005" fill="white">
<path d="M18.4 35.2L19.75 26.8C21.3321 27.2156 22.218 27.2549 23.8 26.8L25.6 35.2C22.7716 36.3955 21.1958 36.395 18.4 35.2Z"/>
</mask>
<path d="M19.75 26.8L21.5284 20.0297L14.0634 18.0689L12.8387 25.6893L19.75 26.8ZM18.4 35.2L11.4887 34.0893L10.6211 39.4879L15.649 41.6368L18.4 35.2ZM25.6 35.2L28.3252 41.6478L33.6576 39.394L32.4446 33.7333L25.6 35.2ZM23.8 26.8L30.6446 25.3333L29.0733 18.0005L21.866 20.0725L23.8 26.8ZM12.8387 25.6893L11.4887 34.0893L25.3113 36.3108L26.6613 27.9108L12.8387 25.6893ZM15.649 41.6368C17.4463 42.405 19.5411 43.0963 21.9874 43.0964C24.4265 43.0966 26.5238 42.4092 28.3252 41.6478L22.8748 28.7523C21.8478 29.1864 21.743 29.0964 21.9882 29.0964C22.2405 29.0965 22.1495 29.1901 21.1511 28.7633L15.649 41.6368ZM32.4446 33.7333L30.6446 25.3333L16.9554 28.2668L18.7554 36.6668L32.4446 33.7333ZM21.866 20.0725C21.6572 20.1326 21.5837 20.1436 21.597 20.1414C21.6062 20.1399 21.6353 20.1356 21.6803 20.1319C21.7259 20.1283 21.7772 20.1262 21.8307 20.1267C21.9449 20.1276 22.0061 20.1391 21.978 20.1345C21.9337 20.1271 21.8058 20.1026 21.5284 20.0297L17.9717 33.5704C18.9895 33.8377 20.2539 34.1146 21.7194 34.1262C23.2282 34.1382 24.5473 33.8687 25.7341 33.5276L21.866 20.0725Z" fill="black" mask="url(#path-5-inside-1_281_1005)"/>
<mask id="path-7-inside-2_281_1005" fill="white">
<path d="M28.7379 31.4138L24.9018 26.5742L26.4071 25.0689L31.4139 28.7377C31.1515 30.4968 30.5817 31.0957 28.7379 31.4138Z"/>
</mask>
<path d="M24.9018 26.5742L19.2449 20.9173L14.2047 25.9576L18.6324 31.5436L24.9018 26.5742ZM28.7379 31.4138L22.4685 36.3832L25.4182 40.1045L30.0977 39.2974L28.7379 31.4138ZM31.4139 28.7377L39.3263 29.9182L40.0392 25.1401L36.1424 22.2847L31.4139 28.7377ZM26.4071 25.0689L31.1356 18.6159L25.6015 14.5607L20.7502 19.412L26.4071 25.0689ZM18.6324 31.5436L22.4685 36.3832L35.0072 26.4444L31.1712 21.6048L18.6324 31.5436ZM36.1424 22.2847L31.1356 18.6159L21.6786 31.5219L26.6854 35.1907L36.1424 22.2847ZM20.7502 19.412L19.2449 20.9173L30.5586 32.231L32.0639 30.7257L20.7502 19.412ZM23.5015 27.5572C23.4394 27.9734 23.5486 26.4358 24.9868 24.9846C26.3913 23.5676 27.8679 23.4457 27.3781 23.5302L30.0977 39.2974C31.4517 39.0638 34.1351 38.4835 36.351 36.2477C38.6007 33.9777 39.126 31.2611 39.3263 29.9182L23.5015 27.5572Z" fill="black" mask="url(#path-7-inside-2_281_1005)"/>
<mask id="path-9-inside-3_281_1005" fill="white">
<path d="M12.2621 28.7379L17.1017 24.9018L18.607 26.4071L14.9382 31.4139C13.1791 31.1515 12.5802 30.5817 12.2621 28.7379Z"/>
</mask>
<path d="M17.1017 24.9018L22.0515 19.952L17.6413 15.5418L12.7535 19.4161L17.1017 24.9018ZM12.2621 28.7379L7.91392 23.2522L4.65775 25.8331L5.364 29.9277L12.2621 28.7379ZM14.9382 31.4139L13.9052 38.3373L18.0861 38.961L20.5846 35.5514L14.9382 31.4139ZM18.607 26.4071L24.2534 30.5445L27.8016 25.7022L23.5568 21.4573L18.607 26.4071ZM12.7535 19.4161L7.91392 23.2522L16.6104 34.2236L21.45 30.3875L12.7535 19.4161ZM20.5846 35.5514L24.2534 30.5445L12.9606 22.2696L9.29181 27.2765L20.5846 35.5514ZM23.5568 21.4573L22.0515 19.952L12.152 29.8515L13.6573 31.3568L23.5568 21.4573ZM15.9711 24.4905C15.497 24.4198 16.7688 24.4893 17.9873 25.6971C19.1761 26.8752 19.2541 28.0918 19.1603 27.548L5.364 29.9277C5.58822 31.2277 6.12469 33.6511 8.13219 35.6407C10.1695 37.6599 12.6203 38.1456 13.9052 38.3373L15.9711 24.4905Z" fill="black" mask="url(#path-9-inside-3_281_1005)"/>
<mask id="path-11-inside-4_281_1005" fill="white">
<path d="M15.2621 12.3821L19.0982 17.2217L17.5929 18.727L12.5861 15.0582C12.8485 13.2991 13.4183 12.7002 15.2621 12.3821Z"/>
</mask>
<path d="M19.0982 17.2217L24.7551 22.8786L29.7953 17.8383L25.3676 12.2523L19.0982 17.2217ZM15.2621 12.3821L21.5315 7.41274L18.5818 3.6914L13.9023 4.49854L15.2621 12.3821ZM12.5861 15.0582L4.67366 13.8777L3.96079 18.6558L7.85758 21.5112L12.5861 15.0582ZM17.5929 18.727L12.8644 25.18L18.3985 29.2352L23.2498 24.3839L17.5929 18.727ZM25.3676 12.2523L21.5315 7.41274L8.99275 17.3515L12.8288 22.1911L25.3676 12.2523ZM7.85758 21.5112L12.8644 25.18L22.3214 12.274L17.3146 8.60518L7.85758 21.5112ZM23.2498 24.3839L24.7551 22.8786L13.4414 11.5649L11.9361 13.0702L23.2498 24.3839ZM20.4985 16.2387C20.5606 15.8225 20.4514 17.3601 19.0132 18.8113C17.6087 20.2283 16.1321 20.3502 16.6219 20.2657L13.9023 4.49854C12.5483 4.73209 9.86494 5.31244 7.64903 7.54825C5.39931 9.81816 4.87402 12.5348 4.67366 13.8777L20.4985 16.2387Z" fill="black" mask="url(#path-11-inside-4_281_1005)"/>
<path d="M35.0643 9.2668C35.326 9.52615 35.5186 9.92755 35.6664 10.6386L31.4128 14.0102L30.5258 13.1232L33.7591 8.71061C34.4239 8.83569 34.8071 9.01188 35.0643 9.2668Z" stroke="black"/>
<mask id="path-14-inside-5_281_1005" fill="white">
<path d="M8.80001 18.4L17.2 19.75C16.7844 21.3321 16.7452 22.218 17.2 23.8L8.80001 25.6C7.62897 22.8391 7.60562 21.2328 8.80001 18.4Z"/>
</mask>
<path d="M17.2 19.75L24.9375 21.7824L27.1784 13.251L18.4694 11.8514L17.2 19.75ZM8.80001 18.4L10.0694 10.5014L3.86852 9.50481L1.42847 15.2919L8.80001 18.4ZM8.80001 25.6L1.43512 28.7239L4.01528 34.8069L10.4762 33.4224L8.80001 25.6ZM17.2 23.8L18.8762 31.6224L27.2566 29.8266L24.8886 21.5897L17.2 23.8ZM18.4694 11.8514L10.0694 10.5014L7.53059 26.2987L15.9306 27.6487L18.4694 11.8514ZM1.42847 15.2919C0.629779 17.1862 -0.0939418 19.4293 -0.0869976 22.0482C-0.080054 24.6669 0.656099 26.8872 1.43512 28.7239L16.1649 22.4762C15.7729 21.5519 15.9118 21.5887 15.9129 22.0058C15.9141 22.4231 15.7759 22.4466 16.1716 21.5081L1.42847 15.2919ZM10.4762 33.4224L18.8762 31.6224L15.5238 15.9776L7.12378 17.7776L10.4762 33.4224ZM24.8886 21.5897C24.8362 21.4076 24.8355 21.3738 24.8457 21.4363C24.8512 21.4704 24.859 21.5264 24.8649 21.6002C24.8709 21.6748 24.874 21.7554 24.8734 21.8387C24.8727 21.9216 24.8684 21.9935 24.8631 22.0503C24.8579 22.1059 24.8526 22.1386 24.852 22.1423C24.8516 22.1448 24.8557 22.1197 24.8693 22.0588C24.8831 21.9971 24.9045 21.9083 24.9375 21.7824L9.46248 17.7176C9.18664 18.7678 8.88649 20.1247 8.87388 21.7114C8.86086 23.3477 9.15399 24.7671 9.51143 26.0104L24.8886 21.5897Z" fill="black" mask="url(#path-14-inside-5_281_1005)"/>
<mask id="path-16-inside-6_281_1005" fill="white">
<path d="M25.6 8.79995L24.25 17.2C22.6679 16.7844 21.782 16.7451 20.2 17.2L18.4 8.79995C21.1647 7.65797 22.7323 7.64732 25.6 8.79995Z"/>
</mask>
<path d="M24.25 17.2L22.4716 23.9703L29.9366 25.9311L31.1613 18.3107L24.25 17.2ZM25.6 8.79995L32.5113 9.9107L33.3985 4.39023L28.2106 2.30498L25.6 8.79995ZM18.4 8.79995L15.7276 2.33014L10.3322 4.55871L11.5554 10.2667L18.4 8.79995ZM20.2 17.2L13.3554 18.6667L14.9267 25.9995L22.134 23.9275L20.2 17.2ZM31.1613 18.3107L32.5113 9.9107L18.6887 7.6892L17.3387 16.0892L31.1613 18.3107ZM28.2106 2.30498C26.402 1.57802 24.3343 0.936581 21.9529 0.939475C19.5564 0.942388 17.5036 1.59658 15.7276 2.33014L21.0723 15.2698C22.0611 14.8613 22.1745 14.9392 21.9699 14.9395C21.7804 14.9397 21.9303 14.8692 22.9894 15.2949L28.2106 2.30498ZM11.5554 10.2667L13.3554 18.6667L27.0446 15.7332L25.2446 7.33325L11.5554 10.2667ZM22.134 23.9275C22.3428 23.8674 22.4163 23.8564 22.403 23.8586C22.3938 23.8601 22.3647 23.8644 22.3197 23.8681C22.2741 23.8717 22.2228 23.8738 22.1693 23.8733C22.0551 23.8724 21.9939 23.8609 22.022 23.8655C22.0663 23.8729 22.1942 23.8974 22.4716 23.9703L26.0283 10.4296C25.0105 10.1623 23.7461 9.88544 22.2806 9.87378C20.7718 9.86179 19.4527 10.1313 18.2659 10.4724L22.134 23.9275Z" fill="black" mask="url(#path-16-inside-6_281_1005)"/>
<mask id="path-18-inside-7_281_1005" fill="white">
<path d="M35.2 25.6L26.8 24.25C27.2156 22.6679 27.2548 21.782 26.8 20.2L35.2 18.4C36.4882 21.3703 36.3897 22.7673 35.2 25.6Z"/>
</mask>
<path d="M26.8 24.25L13.2593 20.6933L9.33775 35.6232L24.5785 38.0726L26.8 24.25ZM35.2 25.6L32.9785 39.4226L43.8456 41.1691L48.1077 31.0213L35.2 25.6ZM35.2 18.4L48.0441 12.8295L43.4808 2.3077L32.2666 4.71074L35.2 18.4ZM26.8 20.2L23.8666 6.51074L9.20093 9.65338L13.345 24.0681L26.8 20.2ZM24.5785 38.0726L32.9785 39.4226L37.4215 11.7774L29.0215 10.4274L24.5785 38.0726ZM48.1077 31.0213C48.8862 29.1679 50.0841 26.0692 50.1283 22.2119C50.1735 18.2646 49.0087 15.0537 48.0441 12.8295L22.3559 23.9704C22.6795 24.7165 22.1095 23.6893 22.1301 21.8912C22.1497 20.1832 22.7036 19.1994 22.2923 20.1787L48.1077 31.0213ZM32.2666 4.71074L23.8666 6.51074L29.7334 33.8892L38.1334 32.0892L32.2666 4.71074ZM13.345 24.0681C13.3513 24.0901 13.2905 23.8852 13.2324 23.5282C13.1694 23.1413 13.1225 22.658 13.1268 22.1136C13.1354 21.0336 13.348 20.3557 13.2593 20.6933L40.3407 27.8066C40.6676 26.5622 41.1075 24.6503 41.1259 22.3363C41.145 19.9356 40.71 17.9144 40.255 16.3318L13.345 24.0681Z" fill="black" mask="url(#path-18-inside-7_281_1005)"/>
<path d="M21.0885 23.4593C21.6259 23.9627 22.4697 23.9352 22.9731 23.3977C23.4765 22.8603 23.4489 22.0165 22.9115 21.5131C22.3741 21.0097 21.5303 21.0373 21.0269 21.5747C20.5235 22.1121 20.5511 22.9559 21.0885 23.4593ZM29.2 14.8L26.4375 15.6378L28.5443 17.6113L29.2 14.8ZM22.1825 22.6571L27.8442 16.613L27.4793 16.2712L21.8175 22.3153L22.1825 22.6571Z" fill="black"/>
</svg>
